<mxfile host="Electron" modified="2024-08-09T07:42:37.504Z" agent="Mozilla/5.0 (Macintosh; Intel Mac OS X 10_15_7) AppleWebKit/537.36 (KHTML, like Gecko) draw.io/22.1.18 Chrome/120.0.6099.199 Electron/28.1.2 Safari/537.36" etag="Q-Q6icGyGJ-682welMbj" version="22.1.18" type="device">
  <diagram name="第 1 页" id="pYm13KI0Az6RilDuBNpL">
    <mxGraphModel dx="852" dy="571" grid="1" gridSize="10" guides="1" tooltips="1" connect="1" arrows="1" fold="1" page="1" pageScale="1" pageWidth="827" pageHeight="1169" math="1" shadow="0">
      <root>
        <mxCell id="0" />
        <mxCell id="1" parent="0" />
        <mxCell id="8g2dnG5wikNMR03u54OA-45" value="" style="rounded=0;whiteSpace=wrap;html=1;fillColor=none;fontSize=18;" parent="1" vertex="1">
          <mxGeometry x="120" y="160" width="440" height="280" as="geometry" />
        </mxCell>
        <mxCell id="8g2dnG5wikNMR03u54OA-46" value="" style="endArrow=none;html=1;rounded=0;entryX=0.078;entryY=0.001;entryDx=0;entryDy=0;entryPerimeter=0;fontSize=18;" parent="1" target="8g2dnG5wikNMR03u54OA-45" edge="1">
          <mxGeometry width="50" height="50" relative="1" as="geometry">
            <mxPoint x="160" y="440" as="sourcePoint" />
            <mxPoint x="440" y="300" as="targetPoint" />
          </mxGeometry>
        </mxCell>
        <mxCell id="8g2dnG5wikNMR03u54OA-47" value="" style="endArrow=none;html=1;rounded=0;entryX=0.078;entryY=0.001;entryDx=0;entryDy=0;entryPerimeter=0;fontSize=18;" parent="1" edge="1">
          <mxGeometry width="50" height="50" relative="1" as="geometry">
            <mxPoint x="480" y="440" as="sourcePoint" />
            <mxPoint x="481" y="160" as="targetPoint" />
          </mxGeometry>
        </mxCell>
        <mxCell id="8g2dnG5wikNMR03u54OA-49" value="" style="endArrow=none;html=1;rounded=0;entryX=0.078;entryY=0.001;entryDx=0;entryDy=0;entryPerimeter=0;fontSize=18;" parent="1" edge="1">
          <mxGeometry width="50" height="50" relative="1" as="geometry">
            <mxPoint x="320" y="440" as="sourcePoint" />
            <mxPoint x="321" y="160" as="targetPoint" />
          </mxGeometry>
        </mxCell>
        <mxCell id="8g2dnG5wikNMR03u54OA-50" value="" style="endArrow=none;html=1;rounded=0;entryX=0.078;entryY=0.001;entryDx=0;entryDy=0;entryPerimeter=0;fontSize=18;" parent="1" edge="1">
          <mxGeometry width="50" height="50" relative="1" as="geometry">
            <mxPoint x="400" y="440" as="sourcePoint" />
            <mxPoint x="401" y="160" as="targetPoint" />
          </mxGeometry>
        </mxCell>
        <mxCell id="8g2dnG5wikNMR03u54OA-51" value="" style="endArrow=none;html=1;rounded=0;entryX=0.078;entryY=0.001;entryDx=0;entryDy=0;entryPerimeter=0;fontSize=18;" parent="1" edge="1">
          <mxGeometry width="50" height="50" relative="1" as="geometry">
            <mxPoint x="240" y="440" as="sourcePoint" />
            <mxPoint x="241" y="160" as="targetPoint" />
          </mxGeometry>
        </mxCell>
        <mxCell id="8g2dnG5wikNMR03u54OA-52" value="" style="endArrow=none;html=1;rounded=0;exitX=0.998;exitY=0.281;exitDx=0;exitDy=0;exitPerimeter=0;fontSize=18;fontFamily=Times New Roman;fontStyle=0" parent="1" source="8g2dnG5wikNMR03u54OA-45" edge="1">
          <mxGeometry width="50" height="50" relative="1" as="geometry">
            <mxPoint x="250" y="450" as="sourcePoint" />
            <mxPoint x="120" y="239" as="targetPoint" />
          </mxGeometry>
        </mxCell>
        <mxCell id="8g2dnG5wikNMR03u54OA-53" value="&lt;font style=&quot;font-size: 18px;&quot;&gt;$$i$$&lt;/font&gt;" style="text;html=1;align=center;verticalAlign=middle;whiteSpace=wrap;rounded=0;fontSize=18;" parent="1" vertex="1">
          <mxGeometry x="130" y="200" width="20" height="30" as="geometry" />
        </mxCell>
        <mxCell id="8g2dnG5wikNMR03u54OA-63" value="" style="group" parent="1" vertex="1" connectable="0">
          <mxGeometry x="170" y="170" width="60" height="60" as="geometry" />
        </mxCell>
        <mxCell id="8g2dnG5wikNMR03u54OA-54" value="&lt;font style=&quot;font-size: 18px;&quot;&gt;$$s=4$$&lt;/font&gt;" style="text;html=1;align=center;verticalAlign=middle;whiteSpace=wrap;rounded=0;fontSize=18;" parent="8g2dnG5wikNMR03u54OA-63" vertex="1">
          <mxGeometry width="60" height="30" as="geometry" />
        </mxCell>
        <mxCell id="8g2dnG5wikNMR03u54OA-58" value="&lt;font style=&quot;font-size: 18px;&quot;&gt;$$n_i$$&lt;/font&gt;" style="text;html=1;align=center;verticalAlign=middle;whiteSpace=wrap;rounded=0;fontSize=18;" parent="8g2dnG5wikNMR03u54OA-63" vertex="1">
          <mxGeometry y="30" width="20" height="30" as="geometry" />
        </mxCell>
        <mxCell id="8g2dnG5wikNMR03u54OA-59" value="&lt;font style=&quot;font-size: 18px;&quot;&gt;$$r_i$$&lt;/font&gt;" style="text;html=1;align=center;verticalAlign=middle;whiteSpace=wrap;rounded=0;fontSize=18;" parent="8g2dnG5wikNMR03u54OA-63" vertex="1">
          <mxGeometry x="40" y="30" width="20" height="30" as="geometry" />
        </mxCell>
        <mxCell id="8g2dnG5wikNMR03u54OA-64" value="" style="group" parent="1" vertex="1" connectable="0">
          <mxGeometry x="250" y="170" width="60" height="60" as="geometry" />
        </mxCell>
        <mxCell id="8g2dnG5wikNMR03u54OA-65" value="&lt;font style=&quot;font-size: 18px;&quot;&gt;$$s=3$$&lt;/font&gt;" style="text;html=1;align=center;verticalAlign=middle;whiteSpace=wrap;rounded=0;fontSize=18;" parent="8g2dnG5wikNMR03u54OA-64" vertex="1">
          <mxGeometry width="60" height="30" as="geometry" />
        </mxCell>
        <mxCell id="8g2dnG5wikNMR03u54OA-66" value="&lt;font style=&quot;font-size: 18px;&quot;&gt;$$n_i$$&lt;/font&gt;" style="text;html=1;align=center;verticalAlign=middle;whiteSpace=wrap;rounded=0;fontSize=18;" parent="8g2dnG5wikNMR03u54OA-64" vertex="1">
          <mxGeometry y="30" width="20" height="30" as="geometry" />
        </mxCell>
        <mxCell id="8g2dnG5wikNMR03u54OA-67" value="&lt;font style=&quot;font-size: 18px;&quot;&gt;$$r_i$$&lt;/font&gt;" style="text;html=1;align=center;verticalAlign=middle;whiteSpace=wrap;rounded=0;fontSize=18;" parent="8g2dnG5wikNMR03u54OA-64" vertex="1">
          <mxGeometry x="40" y="30" width="20" height="30" as="geometry" />
        </mxCell>
        <mxCell id="8g2dnG5wikNMR03u54OA-68" value="" style="group" parent="1" vertex="1" connectable="0">
          <mxGeometry x="490" y="170" width="60" height="60" as="geometry" />
        </mxCell>
        <mxCell id="8g2dnG5wikNMR03u54OA-69" value="&lt;font style=&quot;font-size: 18px;&quot;&gt;$$s=0$$&lt;/font&gt;" style="text;html=1;align=center;verticalAlign=middle;whiteSpace=wrap;rounded=0;fontSize=18;" parent="8g2dnG5wikNMR03u54OA-68" vertex="1">
          <mxGeometry width="60" height="30" as="geometry" />
        </mxCell>
        <mxCell id="8g2dnG5wikNMR03u54OA-70" value="&lt;font style=&quot;font-size: 18px;&quot;&gt;$$n_i$$&lt;/font&gt;" style="text;html=1;align=center;verticalAlign=middle;whiteSpace=wrap;rounded=0;fontSize=18;" parent="8g2dnG5wikNMR03u54OA-68" vertex="1">
          <mxGeometry y="30" width="20" height="30" as="geometry" />
        </mxCell>
        <mxCell id="8g2dnG5wikNMR03u54OA-71" value="&lt;font style=&quot;font-size: 18px;&quot;&gt;$$r_i$$&lt;/font&gt;" style="text;html=1;align=center;verticalAlign=middle;whiteSpace=wrap;rounded=0;fontSize=18;" parent="8g2dnG5wikNMR03u54OA-68" vertex="1">
          <mxGeometry x="40" y="30" width="20" height="30" as="geometry" />
        </mxCell>
        <mxCell id="8g2dnG5wikNMR03u54OA-76" value="" style="group" parent="1" vertex="1" connectable="0">
          <mxGeometry x="330" y="170" width="60" height="60" as="geometry" />
        </mxCell>
        <mxCell id="8g2dnG5wikNMR03u54OA-77" value="&lt;font style=&quot;font-size: 18px;&quot;&gt;$$s=2$$&lt;/font&gt;" style="text;html=1;align=center;verticalAlign=middle;whiteSpace=wrap;rounded=0;fontSize=18;" parent="8g2dnG5wikNMR03u54OA-76" vertex="1">
          <mxGeometry width="60" height="30" as="geometry" />
        </mxCell>
        <mxCell id="8g2dnG5wikNMR03u54OA-78" value="&lt;font style=&quot;font-size: 18px;&quot;&gt;$$n_i$$&lt;/font&gt;" style="text;html=1;align=center;verticalAlign=middle;whiteSpace=wrap;rounded=0;fontSize=18;" parent="8g2dnG5wikNMR03u54OA-76" vertex="1">
          <mxGeometry y="30" width="20" height="30" as="geometry" />
        </mxCell>
        <mxCell id="8g2dnG5wikNMR03u54OA-79" value="&lt;font style=&quot;font-size: 18px;&quot;&gt;$$r_i$$&lt;/font&gt;" style="text;html=1;align=center;verticalAlign=middle;whiteSpace=wrap;rounded=0;fontSize=18;" parent="8g2dnG5wikNMR03u54OA-76" vertex="1">
          <mxGeometry x="40" y="30" width="20" height="30" as="geometry" />
        </mxCell>
        <mxCell id="8g2dnG5wikNMR03u54OA-80" value="" style="group" parent="1" vertex="1" connectable="0">
          <mxGeometry x="410" y="170" width="60" height="60" as="geometry" />
        </mxCell>
        <mxCell id="8g2dnG5wikNMR03u54OA-81" value="&lt;font style=&quot;font-size: 18px;&quot;&gt;$$s=1$$&lt;/font&gt;" style="text;html=1;align=center;verticalAlign=middle;whiteSpace=wrap;rounded=0;fontSize=18;" parent="8g2dnG5wikNMR03u54OA-80" vertex="1">
          <mxGeometry width="60" height="30" as="geometry" />
        </mxCell>
        <mxCell id="8g2dnG5wikNMR03u54OA-82" value="&lt;font style=&quot;font-size: 18px;&quot;&gt;$$n_i$$&lt;/font&gt;" style="text;html=1;align=center;verticalAlign=middle;whiteSpace=wrap;rounded=0;fontSize=18;" parent="8g2dnG5wikNMR03u54OA-80" vertex="1">
          <mxGeometry y="30" width="20" height="30" as="geometry" />
        </mxCell>
        <mxCell id="8g2dnG5wikNMR03u54OA-83" value="&lt;font style=&quot;font-size: 18px;&quot;&gt;$$r_i$$&lt;/font&gt;" style="text;html=1;align=center;verticalAlign=middle;whiteSpace=wrap;rounded=0;fontSize=18;" parent="8g2dnG5wikNMR03u54OA-80" vertex="1">
          <mxGeometry x="40" y="30" width="20" height="30" as="geometry" />
        </mxCell>
        <mxCell id="8g2dnG5wikNMR03u54OA-89" value="&lt;font style=&quot;font-size: 18px;&quot;&gt;1&lt;/font&gt;" style="text;html=1;align=center;verticalAlign=middle;whiteSpace=wrap;rounded=0;fontSize=18;fontFamily=Times New Roman;fontStyle=0" parent="1" vertex="1">
          <mxGeometry x="130" y="285" width="20" height="30" as="geometry" />
        </mxCell>
        <mxCell id="8g2dnG5wikNMR03u54OA-90" value="&lt;font style=&quot;font-size: 18px;&quot;&gt;2&lt;/font&gt;" style="text;html=1;align=center;verticalAlign=middle;whiteSpace=wrap;rounded=0;fontSize=18;fontFamily=Times New Roman;fontStyle=0" parent="1" vertex="1">
          <mxGeometry x="130" y="325" width="20" height="30" as="geometry" />
        </mxCell>
        <mxCell id="8g2dnG5wikNMR03u54OA-91" value="&lt;font style=&quot;font-size: 18px;&quot;&gt;3&lt;/font&gt;" style="text;html=1;align=center;verticalAlign=middle;whiteSpace=wrap;rounded=0;fontSize=18;fontFamily=Times New Roman;fontStyle=0" parent="1" vertex="1">
          <mxGeometry x="130" y="365" width="20" height="30" as="geometry" />
        </mxCell>
        <mxCell id="8g2dnG5wikNMR03u54OA-92" value="&lt;font style=&quot;font-size: 18px;&quot;&gt;4&lt;/font&gt;" style="text;html=1;align=center;verticalAlign=middle;whiteSpace=wrap;rounded=0;fontSize=18;fontFamily=Times New Roman;fontStyle=0" parent="1" vertex="1">
          <mxGeometry x="130" y="405" width="20" height="30" as="geometry" />
        </mxCell>
        <mxCell id="8g2dnG5wikNMR03u54OA-93" value="&lt;font style=&quot;font-size: 18px;&quot;&gt;0&lt;/font&gt;" style="text;html=1;align=center;verticalAlign=middle;whiteSpace=wrap;rounded=0;fontSize=18;fontFamily=Times New Roman;fontStyle=0" parent="1" vertex="1">
          <mxGeometry x="130" y="245" width="20" height="30" as="geometry" />
        </mxCell>
        <mxCell id="8g2dnG5wikNMR03u54OA-109" value="" style="group;fontFamily=Times New Roman;fontStyle=0" parent="1" vertex="1" connectable="0">
          <mxGeometry x="170" y="245" width="459" height="31" as="geometry" />
        </mxCell>
        <mxCell id="8g2dnG5wikNMR03u54OA-101" value="" style="group;fontFamily=Times New Roman;fontStyle=0" parent="8g2dnG5wikNMR03u54OA-109" vertex="1" connectable="0">
          <mxGeometry width="220" height="30" as="geometry" />
        </mxCell>
        <mxCell id="8g2dnG5wikNMR03u54OA-95" value="&lt;font style=&quot;font-size: 18px;&quot;&gt;1&lt;/font&gt;" style="text;html=1;align=center;verticalAlign=middle;whiteSpace=wrap;rounded=0;fontSize=18;fontFamily=Times New Roman;fontStyle=0" parent="8g2dnG5wikNMR03u54OA-101" vertex="1">
          <mxGeometry x="40" width="20" height="30" as="geometry" />
        </mxCell>
        <mxCell id="8g2dnG5wikNMR03u54OA-96" value="&lt;font style=&quot;font-size: 18px;&quot;&gt;81&lt;/font&gt;" style="text;html=1;align=center;verticalAlign=middle;whiteSpace=wrap;rounded=0;fontSize=18;fontFamily=Times New Roman;fontStyle=0" parent="8g2dnG5wikNMR03u54OA-101" vertex="1">
          <mxGeometry width="20" height="30" as="geometry" />
        </mxCell>
        <mxCell id="8g2dnG5wikNMR03u54OA-97" value="&lt;font style=&quot;font-size: 18px;&quot;&gt;3&lt;/font&gt;" style="text;html=1;align=center;verticalAlign=middle;whiteSpace=wrap;rounded=0;fontSize=18;fontFamily=Times New Roman;fontStyle=0" parent="8g2dnG5wikNMR03u54OA-101" vertex="1">
          <mxGeometry x="120" width="20" height="30" as="geometry" />
        </mxCell>
        <mxCell id="8g2dnG5wikNMR03u54OA-98" value="&lt;font style=&quot;font-size: 18px;&quot;&gt;27&lt;/font&gt;" style="text;html=1;align=center;verticalAlign=middle;whiteSpace=wrap;rounded=0;fontSize=18;fontFamily=Times New Roman;fontStyle=0" parent="8g2dnG5wikNMR03u54OA-101" vertex="1">
          <mxGeometry x="80" width="20" height="30" as="geometry" />
        </mxCell>
        <mxCell id="8g2dnG5wikNMR03u54OA-99" value="&lt;font style=&quot;font-size: 18px;&quot;&gt;9&lt;/font&gt;" style="text;html=1;align=center;verticalAlign=middle;whiteSpace=wrap;rounded=0;fontSize=18;fontFamily=Times New Roman;fontStyle=0" parent="8g2dnG5wikNMR03u54OA-101" vertex="1">
          <mxGeometry x="200" width="20" height="30" as="geometry" />
        </mxCell>
        <mxCell id="8g2dnG5wikNMR03u54OA-100" value="&lt;font style=&quot;font-size: 18px;&quot;&gt;9&lt;/font&gt;" style="text;html=1;align=center;verticalAlign=middle;whiteSpace=wrap;rounded=0;fontSize=18;fontFamily=Times New Roman;fontStyle=0" parent="8g2dnG5wikNMR03u54OA-101" vertex="1">
          <mxGeometry x="160" width="20" height="30" as="geometry" />
        </mxCell>
        <mxCell id="8g2dnG5wikNMR03u54OA-102" value="" style="group;fontFamily=Times New Roman;fontStyle=0" parent="8g2dnG5wikNMR03u54OA-109" vertex="1" connectable="0">
          <mxGeometry x="239" y="1" width="220" height="30" as="geometry" />
        </mxCell>
        <mxCell id="8g2dnG5wikNMR03u54OA-103" value="&lt;font style=&quot;font-size: 18px;&quot;&gt;27&lt;/font&gt;" style="text;html=1;align=center;verticalAlign=middle;whiteSpace=wrap;rounded=0;fontSize=18;fontFamily=Times New Roman;fontStyle=0" parent="8g2dnG5wikNMR03u54OA-102" vertex="1">
          <mxGeometry x="40" width="20" height="30" as="geometry" />
        </mxCell>
        <mxCell id="8g2dnG5wikNMR03u54OA-104" value="&lt;font style=&quot;font-size: 18px;&quot;&gt;6&lt;/font&gt;" style="text;html=1;align=center;verticalAlign=middle;whiteSpace=wrap;rounded=0;fontSize=18;fontFamily=Times New Roman;fontStyle=0" parent="8g2dnG5wikNMR03u54OA-102" vertex="1">
          <mxGeometry width="20" height="30" as="geometry" />
        </mxCell>
        <mxCell id="8g2dnG5wikNMR03u54OA-105" value="&lt;font style=&quot;font-size: 18px;&quot;&gt;81&lt;/font&gt;" style="text;html=1;align=center;verticalAlign=middle;whiteSpace=wrap;rounded=0;fontSize=18;fontFamily=Times New Roman;fontStyle=0" parent="8g2dnG5wikNMR03u54OA-102" vertex="1">
          <mxGeometry x="120" width="20" height="30" as="geometry" />
        </mxCell>
        <mxCell id="8g2dnG5wikNMR03u54OA-106" value="&lt;font style=&quot;font-size: 18px;&quot;&gt;5&lt;/font&gt;" style="text;html=1;align=center;verticalAlign=middle;whiteSpace=wrap;rounded=0;fontSize=18;fontFamily=Times New Roman;fontStyle=0" parent="8g2dnG5wikNMR03u54OA-102" vertex="1">
          <mxGeometry x="80" width="20" height="30" as="geometry" />
        </mxCell>
        <mxCell id="8g2dnG5wikNMR03u54OA-110" value="" style="group;fontFamily=Times New Roman;fontStyle=0" parent="1" vertex="1" connectable="0">
          <mxGeometry x="169" y="284" width="459" height="31" as="geometry" />
        </mxCell>
        <mxCell id="8g2dnG5wikNMR03u54OA-111" value="" style="group;fontFamily=Times New Roman;fontStyle=0" parent="8g2dnG5wikNMR03u54OA-110" vertex="1" connectable="0">
          <mxGeometry width="220" height="30" as="geometry" />
        </mxCell>
        <mxCell id="8g2dnG5wikNMR03u54OA-112" value="&lt;font style=&quot;font-size: 18px;&quot;&gt;3&lt;/font&gt;" style="text;html=1;align=center;verticalAlign=middle;whiteSpace=wrap;rounded=0;fontSize=18;fontFamily=Times New Roman;fontStyle=0" parent="8g2dnG5wikNMR03u54OA-111" vertex="1">
          <mxGeometry x="40" width="20" height="30" as="geometry" />
        </mxCell>
        <mxCell id="8g2dnG5wikNMR03u54OA-113" value="&lt;font style=&quot;font-size: 18px;&quot;&gt;27&lt;/font&gt;" style="text;html=1;align=center;verticalAlign=middle;whiteSpace=wrap;rounded=0;fontSize=18;fontFamily=Times New Roman;fontStyle=0" parent="8g2dnG5wikNMR03u54OA-111" vertex="1">
          <mxGeometry width="20" height="30" as="geometry" />
        </mxCell>
        <mxCell id="8g2dnG5wikNMR03u54OA-114" value="&lt;font style=&quot;font-size: 18px;&quot;&gt;9&lt;/font&gt;" style="text;html=1;align=center;verticalAlign=middle;whiteSpace=wrap;rounded=0;fontSize=18;fontFamily=Times New Roman;fontStyle=0" parent="8g2dnG5wikNMR03u54OA-111" vertex="1">
          <mxGeometry x="120" width="20" height="30" as="geometry" />
        </mxCell>
        <mxCell id="8g2dnG5wikNMR03u54OA-115" value="&lt;font style=&quot;font-size: 18px;&quot;&gt;9&lt;/font&gt;" style="text;html=1;align=center;verticalAlign=middle;whiteSpace=wrap;rounded=0;fontSize=18;fontFamily=Times New Roman;fontStyle=0" parent="8g2dnG5wikNMR03u54OA-111" vertex="1">
          <mxGeometry x="80" width="20" height="30" as="geometry" />
        </mxCell>
        <mxCell id="8g2dnG5wikNMR03u54OA-116" value="&lt;font style=&quot;font-size: 18px;&quot;&gt;27&lt;/font&gt;" style="text;html=1;align=center;verticalAlign=middle;whiteSpace=wrap;rounded=0;fontSize=18;fontFamily=Times New Roman;fontStyle=0" parent="8g2dnG5wikNMR03u54OA-111" vertex="1">
          <mxGeometry x="200" width="20" height="30" as="geometry" />
        </mxCell>
        <mxCell id="8g2dnG5wikNMR03u54OA-117" value="&lt;font style=&quot;font-size: 18px;&quot;&gt;3&lt;/font&gt;" style="text;html=1;align=center;verticalAlign=middle;whiteSpace=wrap;rounded=0;fontSize=18;fontFamily=Times New Roman;fontStyle=0" parent="8g2dnG5wikNMR03u54OA-111" vertex="1">
          <mxGeometry x="160" width="20" height="30" as="geometry" />
        </mxCell>
        <mxCell id="8g2dnG5wikNMR03u54OA-118" value="" style="group;fontFamily=Times New Roman;fontStyle=0" parent="8g2dnG5wikNMR03u54OA-110" vertex="1" connectable="0">
          <mxGeometry x="239" y="1" width="220" height="30" as="geometry" />
        </mxCell>
        <mxCell id="8g2dnG5wikNMR03u54OA-119" value="&lt;font style=&quot;font-size: 18px;&quot;&gt;81&lt;/font&gt;" style="text;html=1;align=center;verticalAlign=middle;whiteSpace=wrap;rounded=0;fontSize=18;fontFamily=Times New Roman;fontStyle=0" parent="8g2dnG5wikNMR03u54OA-118" vertex="1">
          <mxGeometry x="40" width="20" height="30" as="geometry" />
        </mxCell>
        <mxCell id="8g2dnG5wikNMR03u54OA-120" value="&lt;font style=&quot;font-size: 18px;&quot;&gt;2&lt;/font&gt;" style="text;html=1;align=center;verticalAlign=middle;whiteSpace=wrap;rounded=0;fontSize=18;fontFamily=Times New Roman;fontStyle=0" parent="8g2dnG5wikNMR03u54OA-118" vertex="1">
          <mxGeometry width="20" height="30" as="geometry" />
        </mxCell>
        <mxCell id="8g2dnG5wikNMR03u54OA-125" value="" style="group;fontFamily=Times New Roman;fontStyle=0" parent="1" vertex="1" connectable="0">
          <mxGeometry x="169" y="324" width="459" height="31" as="geometry" />
        </mxCell>
        <mxCell id="8g2dnG5wikNMR03u54OA-126" value="" style="group;fontFamily=Times New Roman;fontStyle=0" parent="8g2dnG5wikNMR03u54OA-125" vertex="1" connectable="0">
          <mxGeometry width="220" height="30" as="geometry" />
        </mxCell>
        <mxCell id="8g2dnG5wikNMR03u54OA-127" value="&lt;font style=&quot;font-size: 18px;&quot;&gt;9&lt;/font&gt;" style="text;html=1;align=center;verticalAlign=middle;whiteSpace=wrap;rounded=0;fontSize=18;fontFamily=Times New Roman;fontStyle=0" parent="8g2dnG5wikNMR03u54OA-126" vertex="1">
          <mxGeometry x="40" width="20" height="30" as="geometry" />
        </mxCell>
        <mxCell id="8g2dnG5wikNMR03u54OA-128" value="&lt;font style=&quot;font-size: 18px;&quot;&gt;9&lt;/font&gt;" style="text;html=1;align=center;verticalAlign=middle;whiteSpace=wrap;rounded=0;fontSize=18;fontFamily=Times New Roman;fontStyle=0" parent="8g2dnG5wikNMR03u54OA-126" vertex="1">
          <mxGeometry width="20" height="30" as="geometry" />
        </mxCell>
        <mxCell id="8g2dnG5wikNMR03u54OA-129" value="&lt;font style=&quot;font-size: 18px;&quot;&gt;27&lt;/font&gt;" style="text;html=1;align=center;verticalAlign=middle;whiteSpace=wrap;rounded=0;fontSize=18;fontFamily=Times New Roman;fontStyle=0" parent="8g2dnG5wikNMR03u54OA-126" vertex="1">
          <mxGeometry x="120" width="20" height="30" as="geometry" />
        </mxCell>
        <mxCell id="8g2dnG5wikNMR03u54OA-130" value="&lt;font style=&quot;font-size: 18px;&quot;&gt;3&lt;/font&gt;" style="text;html=1;align=center;verticalAlign=middle;whiteSpace=wrap;rounded=0;fontSize=18;fontFamily=Times New Roman;fontStyle=0" parent="8g2dnG5wikNMR03u54OA-126" vertex="1">
          <mxGeometry x="80" width="20" height="30" as="geometry" />
        </mxCell>
        <mxCell id="8g2dnG5wikNMR03u54OA-131" value="&lt;font style=&quot;font-size: 18px;&quot;&gt;81&lt;/font&gt;" style="text;html=1;align=center;verticalAlign=middle;whiteSpace=wrap;rounded=0;fontSize=18;fontFamily=Times New Roman;fontStyle=0" parent="8g2dnG5wikNMR03u54OA-126" vertex="1">
          <mxGeometry x="200" width="20" height="30" as="geometry" />
        </mxCell>
        <mxCell id="8g2dnG5wikNMR03u54OA-132" value="&lt;font style=&quot;font-size: 18px;&quot;&gt;1&lt;/font&gt;" style="text;html=1;align=center;verticalAlign=middle;whiteSpace=wrap;rounded=0;fontSize=18;fontFamily=Times New Roman;fontStyle=0" parent="8g2dnG5wikNMR03u54OA-126" vertex="1">
          <mxGeometry x="160" width="20" height="30" as="geometry" />
        </mxCell>
        <mxCell id="8g2dnG5wikNMR03u54OA-140" value="" style="group;fontFamily=Times New Roman;fontStyle=0" parent="1" vertex="1" connectable="0">
          <mxGeometry x="168" y="364" width="459" height="31" as="geometry" />
        </mxCell>
        <mxCell id="8g2dnG5wikNMR03u54OA-141" value="" style="group;fontFamily=Times New Roman;fontStyle=0" parent="8g2dnG5wikNMR03u54OA-140" vertex="1" connectable="0">
          <mxGeometry width="220" height="30" as="geometry" />
        </mxCell>
        <mxCell id="8g2dnG5wikNMR03u54OA-142" value="&lt;font style=&quot;font-size: 18px;&quot;&gt;27&lt;/font&gt;" style="text;html=1;align=center;verticalAlign=middle;whiteSpace=wrap;rounded=0;fontSize=18;fontFamily=Times New Roman;fontStyle=0" parent="8g2dnG5wikNMR03u54OA-141" vertex="1">
          <mxGeometry x="40" width="20" height="30" as="geometry" />
        </mxCell>
        <mxCell id="8g2dnG5wikNMR03u54OA-143" value="&lt;font style=&quot;font-size: 18px;&quot;&gt;3&lt;/font&gt;" style="text;html=1;align=center;verticalAlign=middle;whiteSpace=wrap;rounded=0;fontSize=18;fontFamily=Times New Roman;fontStyle=0" parent="8g2dnG5wikNMR03u54OA-141" vertex="1">
          <mxGeometry width="20" height="30" as="geometry" />
        </mxCell>
        <mxCell id="8g2dnG5wikNMR03u54OA-144" value="&lt;font style=&quot;font-size: 18px;&quot;&gt;81&lt;/font&gt;" style="text;html=1;align=center;verticalAlign=middle;whiteSpace=wrap;rounded=0;fontSize=18;fontFamily=Times New Roman;fontStyle=0" parent="8g2dnG5wikNMR03u54OA-141" vertex="1">
          <mxGeometry x="120" width="20" height="30" as="geometry" />
        </mxCell>
        <mxCell id="8g2dnG5wikNMR03u54OA-145" value="&lt;font style=&quot;font-size: 18px;&quot;&gt;1&lt;/font&gt;" style="text;html=1;align=center;verticalAlign=middle;whiteSpace=wrap;rounded=0;fontSize=18;fontFamily=Times New Roman;fontStyle=0" parent="8g2dnG5wikNMR03u54OA-141" vertex="1">
          <mxGeometry x="80" width="20" height="30" as="geometry" />
        </mxCell>
        <mxCell id="8g2dnG5wikNMR03u54OA-155" value="" style="group;fontFamily=Times New Roman;fontStyle=0" parent="1" vertex="1" connectable="0">
          <mxGeometry x="167" y="403" width="459" height="31" as="geometry" />
        </mxCell>
        <mxCell id="8g2dnG5wikNMR03u54OA-156" value="" style="group;fontFamily=Times New Roman;fontStyle=0" parent="8g2dnG5wikNMR03u54OA-155" vertex="1" connectable="0">
          <mxGeometry width="220" height="30" as="geometry" />
        </mxCell>
        <mxCell id="8g2dnG5wikNMR03u54OA-157" value="&lt;font style=&quot;font-size: 18px;&quot;&gt;81&lt;/font&gt;" style="text;html=1;align=center;verticalAlign=middle;whiteSpace=wrap;rounded=0;fontSize=18;fontFamily=Times New Roman;fontStyle=0" parent="8g2dnG5wikNMR03u54OA-156" vertex="1">
          <mxGeometry x="40" width="20" height="30" as="geometry" />
        </mxCell>
        <mxCell id="8g2dnG5wikNMR03u54OA-158" value="&lt;font style=&quot;font-size: 18px;&quot;&gt;1&lt;/font&gt;" style="text;html=1;align=center;verticalAlign=middle;whiteSpace=wrap;rounded=0;fontSize=18;fontFamily=Times New Roman;fontStyle=0" parent="8g2dnG5wikNMR03u54OA-156" vertex="1">
          <mxGeometry width="20" height="30" as="geometry" />
        </mxCell>
        <mxCell id="8g2dnG5wikNMR03u54OA-188" value="" style="html=1;shadow=0;dashed=0;align=center;verticalAlign=middle;shape=mxgraph.arrows2.arrow;dy=0.62;dx=38.4;notch=0;fillColor=#FF3333;strokeColor=none;" parent="1" vertex="1">
          <mxGeometry x="310" y="130" width="96" height="20" as="geometry" />
        </mxCell>
        <mxCell id="8g2dnG5wikNMR03u54OA-189" value="" style="html=1;shadow=0;dashed=0;align=center;verticalAlign=middle;shape=mxgraph.arrows2.arrow;dy=0.62;dx=38.4;notch=0;fillColor=#FF3333;strokeColor=none;rotation=90;" parent="1" vertex="1">
          <mxGeometry x="54" y="284" width="96" height="20" as="geometry" />
        </mxCell>
        <mxCell id="8g2dnG5wikNMR03u54OA-190" value="&lt;font color=&quot;#cc0000&quot;&gt;Outer Loop&lt;/font&gt;" style="text;html=1;align=center;verticalAlign=middle;whiteSpace=wrap;rounded=0;fontSize=20;" parent="1" vertex="1">
          <mxGeometry x="292" y="100" width="122" height="30" as="geometry" />
        </mxCell>
        <mxCell id="8g2dnG5wikNMR03u54OA-191" value="&lt;font color=&quot;#cc0000&quot;&gt;Inner Loop&lt;br&gt;&lt;/font&gt;" style="text;html=1;align=center;verticalAlign=middle;whiteSpace=wrap;rounded=0;fontSize=20;rotation=0;horizontal=0;" parent="1" vertex="1">
          <mxGeometry x="70" y="222" width="22" height="130" as="geometry" />
        </mxCell>
      </root>
    </mxGraphModel>
  </diagram>
</mxfile>
